<svg width="174" height="58" viewBox="0 0 174 58" fill="none" xmlns="http://www.w3.org/2000/svg">
<path d="M160.045 0H13.8095C13.3734 0 12.792 0 12.2105 0C11.7744 0 11.3383 0 10.9023 0C9.88471 0 9.01253 0.145 7.99499 0.29C7.12281 0.435 6.10526 0.725 5.23308 1.16C4.3609 1.595 3.63409 2.175 2.90727 2.9C2.18045 3.625 1.599 4.35 1.16291 5.22C0.726817 6.09 0.43609 7.105 0.290727 7.975C0.145363 8.99 0 10.005 0 10.875C0 11.31 0 11.745 0 12.18V45.675C0 46.11 0 46.545 0 46.98C0 47.995 0.145363 48.865 0.290727 49.88C0.43609 50.895 0.726817 51.765 1.16291 52.635C1.599 53.65 2.18045 54.375 2.90727 55.1C3.63409 55.825 4.3609 56.405 5.23308 56.84C6.10526 57.275 6.97744 57.565 7.99499 57.71C9.01253 57.855 9.88471 58 10.9023 58C11.3383 58 11.7744 58 12.2105 58C12.792 58 13.2281 58 13.8095 58H160.045C160.627 58 161.063 58 161.644 58C162.08 58 162.516 58 162.952 58C163.97 58 164.842 57.855 165.86 57.71C166.877 57.565 167.749 57.275 168.622 56.84C169.494 56.405 170.221 55.825 170.947 55.1C171.674 54.375 172.256 53.65 172.692 52.78C173.128 51.91 173.419 51.04 173.564 50.025C173.709 49.01 173.855 48.14 173.855 47.125C173.855 46.69 173.855 46.255 173.855 45.82C173.855 45.24 173.855 44.805 173.855 44.225V13.775C173.855 13.195 173.855 12.76 173.855 12.18C173.855 11.745 173.855 11.31 173.855 10.875C173.855 9.86 173.709 8.99 173.564 7.975C173.419 6.96 173.128 6.09 172.692 5.22C171.82 3.48 170.366 2.03 168.622 1.16C167.749 0.725 166.877 0.435 165.86 0.29C164.842 0.145 163.97 0 162.952 0C162.516 0 162.08 0 161.644 0C161.208 0 160.627 0 160.045 0Z" fill="#A6A6A6"/>
<path d="M12.2106 56.6949C11.7745 56.6949 11.3384 56.6949 10.9023 56.6949C10.0301 56.6949 9.01259 56.5499 8.14041 56.4049C7.26823 56.2599 6.54141 55.9699 5.66923 55.6799C4.94241 55.2449 4.2156 54.8099 3.63414 54.2299C3.05269 53.6499 2.47123 52.9249 2.18051 52.1999C1.74442 51.4749 1.59905 50.6049 1.45369 49.7349C1.30833 48.8649 1.16296 47.9949 1.16296 46.9799C1.16296 46.6899 1.16296 45.6749 1.16296 45.6749V12.1799C1.16296 12.1799 1.16296 11.1649 1.16296 10.8749C1.16296 10.0049 1.30833 8.98993 1.45369 8.11993C1.59905 7.39493 1.88978 6.52493 2.32587 5.79993C2.76196 5.07493 3.19805 4.34993 3.77951 3.76993C4.36096 3.18993 5.08778 2.75493 5.81459 2.31993C6.54141 1.88493 7.41359 1.73993 8.28577 1.59493C9.15795 1.44993 10.0301 1.30493 11.0477 1.30493H12.3559H161.79H163.098C163.97 1.30493 164.842 1.44993 165.86 1.59493C166.732 1.73993 167.459 2.02993 168.331 2.31993C169.785 3.04493 171.093 4.34993 171.82 5.79993C172.256 6.52493 172.401 7.39493 172.546 8.11993C172.692 8.98993 172.837 10.0049 172.837 10.8749C172.837 11.3099 172.837 11.7449 172.837 12.1799C172.837 12.7599 172.837 13.1949 172.837 13.7749V44.0799C172.837 44.6599 172.837 45.0949 172.837 45.6749C172.837 46.1099 172.837 46.5449 172.837 46.9799C172.837 47.8499 172.692 48.7199 172.546 49.7349C172.401 50.6049 172.11 51.3299 171.82 52.1999C171.384 52.9249 170.947 53.6499 170.366 54.2299C169.785 54.8099 169.058 55.3899 168.331 55.6799C167.604 56.1149 166.732 56.4049 165.86 56.4049C164.988 56.5499 164.115 56.6949 163.098 56.6949C162.662 56.6949 162.226 56.6949 161.79 56.6949H160.191H12.2106Z" fill="black"/>
<path d="M36.0501 29.4349C36.0501 26.9699 37.3584 24.6499 39.5388 23.3449C38.2306 21.4599 36.0501 20.2999 33.7243 20.1549C31.2531 19.8649 28.9273 21.6049 27.619 21.6049C26.3108 21.6049 24.421 20.1549 22.3859 20.1549C19.624 20.2999 17.1529 21.7499 15.8446 24.0699C13.0827 28.8549 15.1178 36.1049 17.8797 40.0199C19.188 41.9049 20.787 44.0799 22.822 44.0799C24.8571 43.9349 25.5839 42.7749 28.0551 42.7749C30.5263 42.7749 31.1078 44.0799 33.2882 44.0799C35.4687 44.0799 36.7769 42.1949 38.0852 40.1649C39.1027 38.8599 39.8296 37.2649 40.2656 35.6699C37.6491 34.7999 36.0501 32.1899 36.0501 29.4349Z" fill="white"/>
<path d="M31.98 17.69C33.1429 16.24 33.7243 14.5 33.579 12.615C31.8346 12.76 30.0903 13.63 28.9273 15.08C27.7644 16.385 27.183 18.125 27.3283 20.01C29.2181 20.01 30.8171 19.14 31.98 17.69Z" fill="white"/>
<path d="M61.4887 39.2951H54.6567L53.0577 44.2251H50.1504L56.6917 26.2451H59.599L66.1404 44.2251H63.2331L61.4887 39.2951ZM55.3835 37.1201H60.9073L58.1454 29.1451H58L55.3835 37.1201Z" fill="white"/>
<path d="M80.2407 37.7001C80.2407 41.7601 78.0602 44.3701 74.7168 44.3701C72.9725 44.5151 71.3735 43.5001 70.6467 42.0501V48.5751H67.8848V31.1751H70.5013V33.3501C71.3735 31.9001 72.9725 31.0301 74.7168 31.0301C77.9148 30.8851 80.2407 33.6401 80.2407 37.7001ZM77.3334 37.7001C77.3334 35.0901 76.0251 33.3501 73.8447 33.3501C71.8096 33.3501 70.3559 35.0901 70.3559 37.7001C70.3559 40.3101 71.8096 42.0501 73.8447 42.0501C76.0251 42.0501 77.3334 40.3101 77.3334 37.7001Z" fill="white"/>
<path d="M94.6315 37.7001C94.6315 41.7601 92.4511 44.3701 89.1077 44.3701C87.3634 44.5151 85.7644 43.5001 85.0375 42.0501V48.5751H82.2756V31.1751H84.8922V33.3501C85.7644 31.9001 87.3634 31.0301 89.1077 31.0301C92.4511 30.8851 94.6315 33.6401 94.6315 37.7001ZM91.8696 37.7001C91.8696 35.0901 90.5613 33.3501 88.3809 33.3501C86.3458 33.3501 84.8922 35.0901 84.8922 37.7001C84.8922 40.3101 86.3458 42.0501 88.3809 42.0501C90.5613 42.0501 91.8696 40.3101 91.8696 37.7001Z" fill="white"/>
<path d="M104.226 39.1501C104.371 40.8901 106.115 42.0501 108.586 42.0501C110.912 42.0501 112.511 40.8901 112.511 39.2951C112.511 37.8451 111.494 37.1201 109.168 36.5401L106.842 35.9601C103.499 35.0901 102.045 33.6401 102.045 31.1751C102.045 28.1301 104.807 25.9551 108.586 25.9551C112.366 25.9551 114.982 28.1301 115.128 31.1751H112.366C112.221 29.4351 110.767 28.2751 108.586 28.2751C106.406 28.2751 104.952 29.4351 104.952 31.0301C104.952 32.3351 105.97 33.0601 108.296 33.6401L110.331 34.0751C113.965 34.9451 115.564 36.3951 115.564 39.0051C115.564 42.3401 112.802 44.5151 108.586 44.5151C104.516 44.5151 101.9 42.4851 101.754 39.1501H104.226Z" fill="white"/>
<path d="M121.088 27.9851V31.0301H123.559V33.2051H121.088V40.4551C121.088 41.6151 121.524 42.0501 122.687 42.0501C122.977 42.0501 123.268 42.0501 123.559 42.0501V44.2251C123.123 44.3701 122.541 44.3701 122.105 44.3701C119.489 44.3701 118.471 43.3551 118.471 40.8901V33.3501H116.581V31.1751H118.471V28.1301H121.088V27.9851Z" fill="white"/>
<path d="M125.158 37.7C125.158 33.64 127.629 31.03 131.409 31.03C135.188 31.03 137.659 33.64 137.659 37.7C137.659 41.905 135.188 44.37 131.409 44.37C127.484 44.37 125.158 41.76 125.158 37.7ZM134.897 37.7C134.897 34.8 133.589 33.205 131.409 33.205C129.228 33.205 127.92 34.8 127.92 37.7C127.92 40.6 129.228 42.195 131.409 42.195C133.589 42.195 134.897 40.455 134.897 37.7Z" fill="white"/>
<path d="M139.84 31.0301H142.456V33.3501C142.747 31.9001 144.2 30.8851 145.654 31.0301C145.945 31.0301 146.236 31.0301 146.526 31.1751V33.6401C146.09 33.4951 145.654 33.4951 145.363 33.4951C143.91 33.4951 142.602 34.6551 142.602 36.1051C142.602 36.2501 142.602 36.3951 142.602 36.5401V44.3701H139.84V31.0301Z" fill="white"/>
<path d="M159.028 40.31C158.592 42.63 156.266 44.37 153.358 44.37C149.579 44.37 147.108 41.76 147.108 37.7C147.108 33.64 149.434 30.885 153.213 30.885C156.847 30.885 159.173 33.35 159.173 37.41V38.28H149.87V38.425C149.724 40.31 151.033 41.905 152.922 42.195C153.068 42.195 153.213 42.195 153.358 42.195C154.667 42.34 155.975 41.615 156.411 40.31H159.028ZM149.87 36.395H156.411C156.556 34.655 155.103 33.205 153.358 33.06C153.213 33.06 153.213 33.06 153.068 33.06C151.323 33.06 149.87 34.51 149.87 36.395Z" fill="white"/>
<path d="M55.2381 12.6147C56.6918 12.6147 58 13.7747 58.1454 15.2247C58.1454 15.3697 58.1454 15.3697 58.1454 15.5147C58.1454 16.9647 56.9825 18.2697 55.5289 18.4147C55.3835 18.4147 55.3835 18.4147 55.2381 18.4147H53.203V21.3147H51.8948V12.6147H55.2381ZM53.203 17.2547H54.9474C56.1103 17.2547 56.8371 16.6747 56.8371 15.5147C56.8371 14.3547 56.1103 13.7747 54.9474 13.7747H53.203V17.2547Z" fill="white"/>
<path d="M59.3083 17.9798C59.1629 16.2398 60.3258 14.7898 62.0702 14.6448C63.8145 14.4998 65.2682 15.6598 65.4135 17.3998C65.4135 17.5448 65.4135 17.8348 65.4135 17.9798C65.5589 19.7198 64.396 21.1698 62.6516 21.3148C61.0526 21.6048 59.599 20.2998 59.3083 18.7048C59.3083 18.4148 59.3083 18.2698 59.3083 17.9798ZM64.2506 17.9798C64.2506 16.5298 63.6692 15.8048 62.5063 15.8048C61.3434 15.8048 60.7619 16.6748 60.7619 17.9798C60.7619 19.4298 61.3434 20.2998 62.5063 20.2998C63.5238 20.2998 64.2506 19.4298 64.2506 17.9798Z" fill="white"/>
<path d="M68.6116 20.2999L68.4662 21.3149H67.158V12.1799H68.4662V15.8049H68.6116C69.0477 15.0799 69.7745 14.6449 70.6467 14.6449C72.2457 14.6449 73.4086 15.9499 73.4086 17.9799C73.4086 20.0099 72.391 21.3149 70.6467 21.3149C69.9199 21.4599 69.0477 21.0249 68.6116 20.2999ZM68.6116 17.9799C68.6116 19.2849 69.3384 20.1549 70.356 20.1549C71.5189 20.1549 72.1003 19.2849 72.1003 17.9799C72.1003 16.6749 71.3735 15.8049 70.356 15.8049C69.3384 15.8049 68.6116 16.6749 68.6116 17.9799Z" fill="white"/>
<path d="M75.0076 12.9049C75.0076 12.4699 75.2983 12.0349 75.7344 12.0349C76.1705 12.0349 76.6066 12.3249 76.6066 12.7599C76.6066 13.1949 76.3158 13.6299 75.8798 13.6299C75.4437 13.6299 75.0076 13.3399 75.0076 12.9049ZM75.1529 14.7899H76.4612V21.3149H75.1529V14.7899Z" fill="white"/>
<path d="M84.1654 19.5748C83.8747 20.7348 82.5664 21.6048 81.2582 21.4598C79.6592 21.4598 78.2055 20.1548 78.2055 18.5598C78.2055 18.4148 78.2055 18.2698 78.2055 18.1248C77.9148 16.5298 79.0777 14.9348 80.8221 14.7898C80.9674 14.7898 81.1128 14.7898 81.2582 14.7898C83.1479 14.7898 84.1654 16.0948 84.1654 18.1248V18.5598H79.5138C79.3684 19.5748 80.0953 20.2998 81.1128 20.4448H81.2582C81.8396 20.5898 82.5664 20.1548 82.8572 19.7198L84.1654 19.5748ZM79.5138 17.3998H82.8572C82.8572 16.5298 82.2757 15.8048 81.4035 15.6598H81.2582C80.386 15.8048 79.5138 16.5298 79.5138 17.3998Z" fill="white"/>
<path d="M85.9098 14.79H87.2181V15.805C87.5088 15.08 88.2356 14.645 88.9624 14.645C89.1078 14.645 89.3985 14.645 89.5439 14.645V15.95C89.2531 15.95 89.1078 15.805 88.8171 15.805C87.9449 15.66 87.2181 16.385 87.2181 17.255V17.4V21.315H85.9098V14.79Z" fill="white"/>
<path d="M90.8521 20.445L94.4862 15.95V15.805H90.8521V14.645H95.9399V15.515L92.4511 19.865V20.01H95.9399V21.17H90.7068V20.445H90.8521Z" fill="white"/>
<path d="M108.296 21.3148H106.988L105.679 16.5298H105.534L104.226 21.3148H102.917L101.173 14.7898H102.481L103.644 19.7198H103.79L105.098 14.7898H106.115L107.424 19.7198H107.569L108.732 14.7898H110.04L108.296 21.3148Z" fill="white"/>
</svg>
