<svg width="59" height="40" viewBox="0 0 59 40" fill="none" xmlns="http://www.w3.org/2000/svg">
<path d="M57.463 23.7311L42.8022 38.4762C41.7772 39.507 40.4404 40.0224 39.1035 40.0224C37.7667 40.0224 36.4298 39.507 35.4049 38.4762C33.355 36.4146 33.355 33.0756 35.4049 31.0364L41.1311 25.2997H5.25873C2.36221 25.2997 0.0227051 22.9468 0.0227051 20.0336C0.0227051 17.1204 2.36221 14.7675 5.25873 14.7675H41.1311L35.4049 9.03081C33.355 6.96918 33.355 3.63025 35.4049 1.59103C37.4547 -0.470591 40.7746 -0.470591 42.8022 1.59103L57.463 16.3361C59.5129 18.3305 59.5129 21.6695 57.463 23.7311Z" fill="#E2E2E2"/>
</svg>
