<svg width="276" height="312" viewBox="0 0 276 312" fill="none" xmlns="http://www.w3.org/2000/svg">
<g opacity="0.08">
<path fill-rule="evenodd" clip-rule="evenodd" d="M171.771 312C186.162 312 197.828 298.841 197.828 282.609V116.058C197.828 99.8255 186.162 86.6666 171.771 86.6666C157.38 86.6666 145.714 99.8255 145.714 116.058V282.609C145.714 298.841 157.38 312 171.771 312Z" fill="#00BF93"/>
<path fill-rule="evenodd" clip-rule="evenodd" d="M276 199.333C276 184.974 264.783 173.333 250.945 173.333H83.9121C70.0746 173.333 58.8572 184.974 58.8572 199.333C58.8572 213.693 70.0746 225.333 83.9121 225.333H250.945C264.783 225.333 276 213.693 276 199.333Z" fill="#00BF93"/>
<path fill-rule="evenodd" clip-rule="evenodd" d="M-28 123.441C-28 136.637 -16.9478 147.333 -3.3143 147.333H103.657C117.291 147.333 128.343 136.637 128.343 123.441V23.8919C128.343 10.6968 117.291 0 103.657 0C90.0236 0 78.9714 10.6968 78.9714 23.8919V67.5265L26.0919 18.5726C16.2397 9.45178 0.613464 9.7879 -8.81036 19.3232C-18.2342 28.8586 -17.8869 43.9824 -8.03476 53.1031L42.1362 99.5496H-3.3143C-16.9478 99.5496 -28 110.246 -28 123.441Z" fill="#00BF93"/>
</g>
</svg>
