<svg width="12" height="22" viewBox="0 0 12 22" fill="none" xmlns="http://www.w3.org/2000/svg">
<path d="M1 11L0.292893 10.2929C-0.0976311 10.6834 -0.0976311 11.3166 0.292893 11.7071L1 11ZM11.7071 1.70711C12.0976 1.31658 12.0976 0.683417 11.7071 0.292893C11.3166 -0.0976311 10.6834 -0.0976311 10.2929 0.292893L11.7071 1.70711ZM10.2929 21.7071C10.6834 22.0976 11.3166 22.0976 11.7071 21.7071C12.0976 21.3166 12.0976 20.6834 11.7071 20.2929L10.2929 21.7071ZM1.70711 11.7071L11.7071 1.70711L10.2929 0.292893L0.292893 10.2929L1.70711 11.7071ZM0.292893 11.7071L10.2929 21.7071L11.7071 20.2929L1.70711 10.2929L0.292893 11.7071Z" fill="white"/>
</svg>
