<svg width="90" height="90" viewBox="0 0 90 90" fill="none" xmlns="http://www.w3.org/2000/svg">
<path d="M45.0105 0C20.1511 0 0 20.1511 0 45.0105C0 69.8698 20.1511 90.0209 45.0105 90.0209C69.8698 90.0209 90.0209 69.8698 90.0209 45.0105C90 20.1511 69.8489 0 45.0105 0Z" fill="white"/>
<path d="M55.4104 67.9028H54.3641C53.0876 67.9028 51.9786 67.024 51.6856 65.7894L50.9951 62.8598H38.9839L38.2934 65.7894C38.0005 67.024 36.8914 67.9028 35.615 67.9028H34.5687C33.3759 67.9028 32.3925 68.8654 32.3925 70.0791V71.3346H57.5657V70.0791C57.5866 68.8863 56.624 67.9028 55.4104 67.9028Z" fill="#7A8AA3"/>
<path d="M70.7487 62.8598H19.2513C16.9914 62.8598 15.1709 61.0393 15.1709 58.7794V22.7668C15.1709 20.5069 16.9914 18.6864 19.2513 18.6864H70.7487C73.0086 18.6864 74.8291 20.5069 74.8291 22.7668V58.8003C74.8291 61.0393 73.0086 62.8598 70.7487 62.8598Z" fill="#CCD9E7"/>
<path d="M15.1918 54.6571V22.7668C15.1918 20.5069 17.0123 18.6864 19.2723 18.6864H70.7696C73.0296 18.6864 74.8501 20.5069 74.8501 22.7668V54.6571" fill="#008BF5"/>
<path d="M71.6903 22.0972H18.3306V52.1669H71.6903V22.0972Z" fill="#B8EEFA"/>
<path d="M46.7682 57.9842C46.7682 58.9677 45.973 59.7419 45.0105 59.7419C44.027 59.7419 43.2527 58.9468 43.2527 57.9842C43.2527 57.0007 44.0479 56.2265 45.0105 56.2265C45.973 56.2265 46.7682 57.0216 46.7682 57.9842Z" fill="#0071A8"/>
<path d="M67.7563 52.1669V28.5422C67.7563 26.7635 66.3125 25.2988 64.5129 25.2988H25.508C23.7294 25.2988 22.2646 26.7426 22.2646 28.5422V52.1669H67.7563Z" fill="#0071A8"/>
<path d="M57.0634 28.1028C57.0634 28.6259 56.624 29.0653 56.1009 29.0653C55.5777 29.0653 55.1383 28.6259 55.1383 28.1028C55.1383 27.5796 55.5777 27.1402 56.1009 27.1402C56.6449 27.1402 57.0634 27.5587 57.0634 28.1028Z" fill="white"/>
<path d="M60.9765 28.1028C60.9765 28.6259 60.5371 29.0653 60.014 29.0653C59.4699 29.0653 59.0514 28.6259 59.0514 28.1028C59.0514 27.5796 59.4908 27.1402 60.014 27.1402C60.558 27.1402 60.9765 27.5587 60.9765 28.1028Z" fill="white"/>
<path d="M64.9105 28.1028C64.9105 28.6259 64.4711 29.0653 63.9479 29.0653C63.4248 29.0653 62.9854 28.6259 62.9854 28.1028C62.9854 27.5796 63.4248 27.1402 63.9479 27.1402C64.4711 27.1402 64.9105 27.5587 64.9105 28.1028Z" fill="white"/>
<path d="M67.7563 31.0532H22.2646V52.1669H67.7563V31.0532Z" fill="white"/>
<path d="M63.927 42.6459H26.0939V45.0523H63.927V42.6459Z" fill="#E4F0FA"/>
<path d="M63.927 47.2495H26.0939V49.6559H63.927V47.2495Z" fill="#E4F0FA"/>
</svg>
