<svg width="90" height="90" viewBox="0 0 90 90" fill="none" xmlns="http://www.w3.org/2000/svg">
<path d="M45.0105 0C20.1511 0 0 20.1511 0 45.0105C0 69.8698 20.1511 90.0209 45.0105 90.0209C69.8698 90.0209 90.0209 69.8698 90.0209 45.0105C90 20.1511 69.8489 0 45.0105 0Z" fill="white"/>
<path d="M20.2348 60.2232L17.2425 72.067L34.1711 60.2232H58.2353C60.9346 60.2232 63.1109 58.047 63.1109 55.3476V33.7526C63.1109 31.0532 60.9346 28.877 58.2353 28.877H20.2348C17.5354 28.877 15.3592 31.0532 15.3592 33.7526V55.3476C15.3592 58.047 17.5354 60.2232 20.2348 60.2232Z" fill="#2E476E"/>
<path d="M67.7354 53.9037L70.7277 65.7475L53.7782 53.9037H29.714C27.0146 53.9037 24.8384 51.7275 24.8384 49.0281V27.4122C24.8384 24.7129 27.0146 22.5366 29.714 22.5366H67.7145C70.4138 22.5366 72.5901 24.7129 72.5901 27.4122V49.0072C72.611 51.7066 70.4138 53.9037 67.7354 53.9037Z" fill="#008BF5"/>
<path d="M40.8144 38.4856C41.2686 36.5623 40.0776 34.6351 38.1544 34.181C36.2311 33.7268 34.3039 34.9178 33.8497 36.841C33.3956 38.7643 34.5866 40.6915 36.5098 41.1456C38.433 41.5998 40.3603 40.4088 40.8144 38.4856Z" fill="#E4F0FA"/>
<path d="M50.103 40.9478C51.9288 40.1915 52.7958 38.0983 52.0395 36.2725C51.2833 34.4467 49.19 33.5797 47.3642 34.336C45.5384 35.0923 44.6714 37.1855 45.4277 39.0113C46.184 40.8371 48.2772 41.7041 50.103 40.9478Z" fill="#E4F0FA"/>
<path d="M62.6415 40.1726C64.0389 38.7752 64.0389 36.5096 62.6415 35.1123C61.2442 33.7149 58.9786 33.7149 57.5812 35.1123C56.1838 36.5096 56.1838 38.7752 57.5812 40.1726C58.9786 41.57 61.2442 41.57 62.6415 40.1726Z" fill="#E4F0FA"/>
</svg>
