<svg xmlns="http://www.w3.org/2000/svg" width="24" height="22" viewBox="0 0 24 22">
    <g fill="#FFF" fill-rule="nonzero">
        <path d="M20.719 10.939a.469.469 0 1 0 0-.938.469.469 0 0 0 0 .938z"/>
        <path d="M0 9.298c0 .662.307 1.253.785 1.64A2.111 2.111 0 0 0 .03 12.93c.163 1.003 1.095 1.759 2.168 1.759h4.465l-.139.417c-.794 2.383-.056 4.929 1.692 6.418.977.843 2.643.562 3.155-.832a.469.469 0 0 0 .007-.302c-.39-1.239-.395-2.072-.019-2.875.39-.833 1.228-1.707 2.804-2.924.378-.292.708-.47 1.028-.643.503-.272.982-.53 1.476-1.134h1.709v.469c0 .258.21.468.469.468h4.687c.26 0 .469-.21.469-.468V1.095a.469.469 0 0 0-.469-.469h-4.687a.469.469 0 0 0-.469.47V2.5h-2.63A7.424 7.424 0 0 0 10.8.626H4.922a2.108 2.108 0 0 0-1.753 3.282h-.122a2.108 2.108 0 0 0-1.66 3.408A2.11 2.11 0 0 0 0 9.298zm19.313-7.734h3.75v11.25h-3.75V1.564zM2.108 8.126h4.5a.469.469 0 0 0 0-.937H3.047a1.171 1.171 0 1 1 0-2.344h3.562a.469.469 0 0 0 0-.937H4.922a1.171 1.171 0 1 1 0-2.344h5.877a6.49 6.49 0 0 1 4.445 1.749.469.469 0 0 0 .32.126h2.811v8.437h-1.939c-.149 0-.289.071-.377.191-.423.574-.797.776-1.315 1.056a7.852 7.852 0 0 0-1.156.726c-3.209 2.479-3.943 3.998-3.157 6.653-.31.597-1.086.758-1.637.283-1.494-1.306-2.036-3.419-1.381-5.383l.237-.713h.6a.469.469 0 0 0 0-.938 20575408228637710 20575408228637710 0 0 1-6.14-2.344h4.5a.469.469 0 0 0 0-.937h-4.5a1.171 1.171 0 1 1 0-2.344z"/>
        <path d="M20.719 9.064c.259 0 .468-.21.468-.469V3.908a.469.469 0 1 0-.937 0v4.687c0 .259.21.469.469.469z"/>
    </g>
</svg>
