<svg width="59" height="59" viewBox="0 0 59 59" fill="none" xmlns="http://www.w3.org/2000/svg">
<circle cx="29.5" cy="29.5" r="29.5" fill="url(#paint0_linear)"/>
<path d="M45.3399 26.2491C45.4788 26.2491 45.6176 26.2093 45.7564 26.1298L46.3116 25.7718C46.6686 25.5531 46.7677 25.0759 46.5297 24.7179C46.3116 24.36 45.8357 24.2606 45.4788 24.4992L44.9235 24.8571C44.5666 25.0759 44.4674 25.5531 44.7054 25.911C44.8442 26.1298 45.0822 26.2491 45.3399 26.2491Z" fill="#18B3FF"/>
<path d="M46.322 18H12.678C10.6261 18 9 19.1897 9 20.7363V22.7191C9 22.9769 9.11615 23.2148 9.32908 23.3536L21.9504 31.7211L10.6261 45.0654C10.5293 44.8077 10.4712 44.5499 10.4712 44.2525V28.8658C10.4712 28.4494 10.1421 28.1124 9.7356 28.1124C9.32908 28.1124 9 28.4494 9 28.8658V44.2327C9 46.3146 10.6454 48 12.678 48H46.322C48.3546 48 50 46.3146 50 44.2327V21.7673C50 19.6854 48.3546 18 46.322 18ZM12.678 19.5069H46.322C47.5415 19.5069 48.5288 20.5182 48.5288 21.7673V44.2525C48.5288 44.5301 48.4707 44.8077 48.3739 45.0654L37.0496 31.7211L43.3409 27.5373C43.6893 27.3192 43.7861 26.8434 43.5538 26.4865C43.3409 26.1295 42.8763 26.0304 42.5279 26.2683L31.5519 33.5453C30.4292 34.2789 28.5321 34.2789 27.4287 33.5453L10.4712 22.2829V20.7165C10.4712 20.1613 11.4197 19.5069 12.678 19.5069ZM12.678 46.4931C12.2908 46.4931 11.923 46.3939 11.6133 46.1956L23.228 32.5142L26.6544 34.7944C27.4674 35.3298 28.4934 35.5876 29.5194 35.5876C30.5453 35.5876 31.5907 35.3298 32.3843 34.7944L35.8107 32.5142L47.4254 46.1956C47.1157 46.3741 46.7479 46.4931 46.3607 46.4931H12.678Z" fill="#18B3FF"/>
<path d="M21.9406 23.9623H36.0595C36.476 23.9623 36.8131 23.6243 36.8131 23.2067C36.8131 22.7891 36.476 22.451 36.0595 22.451H21.9406C21.5241 22.451 21.187 22.7891 21.187 23.2067C21.187 23.6243 21.5241 23.9623 21.9406 23.9623Z" fill="#18B3FF"/>
<path d="M31.7168 26.249H26.2833C25.8669 26.249 25.5298 26.5871 25.5298 27.0046C25.5298 27.4222 25.8669 27.7603 26.2833 27.7603H31.7366C32.153 27.7603 32.4901 27.4222 32.4901 27.0046C32.4901 26.5871 32.153 26.249 31.7168 26.249Z" fill="#18B3FF"/>
<path d="M27.6316 51.2444C27.6316 50.8268 27.2945 50.4888 26.8781 50.4888H17.1217C16.7053 50.4888 16.3682 50.8268 16.3682 51.2444C16.3682 51.662 16.7053 52 17.1217 52H26.8781C27.2945 52 27.6316 51.662 27.6316 51.2444Z" fill="#18B3FF"/>
<path d="M21.2465 15.5113H35.7224C36.1388 15.5113 36.4759 15.1732 36.4759 14.7556C36.4759 14.338 36.1388 14 35.7224 14H21.2465C20.83 14 20.4929 14.338 20.4929 14.7556C20.4929 15.1732 20.83 15.5113 21.2465 15.5113Z" fill="#18B3FF"/>
<path d="M17.1217 15.5113H18.8866C19.303 15.5113 19.6401 15.1732 19.6401 14.7556C19.6401 14.338 19.303 14 18.8866 14H17.1217C16.7053 14 16.3682 14.338 16.3682 14.7556C16.3682 15.1732 16.7053 15.5113 17.1217 15.5113Z" fill="#18B3FF"/>
<defs>
<linearGradient id="paint0_linear" x1="29.5" y1="90.0206" x2="29.5" y2="15.5103" gradientUnits="userSpaceOnUse">
<stop stop-color="#83EBF1"/>
<stop offset="1" stop-color="white" stop-opacity="0"/>
</linearGradient>
</defs>
</svg>
