<svg width="198" height="36" viewBox="0 0 198 36" fill="none" xmlns="http://www.w3.org/2000/svg">
<path fill-rule="evenodd" clip-rule="evenodd" d="M178.286 5C176.866 5 175.714 6.30143 175.714 7.90683V24.3789C175.714 25.9843 176.866 27.2857 178.286 27.2857C179.706 27.2857 180.857 25.9843 180.857 24.3789V7.90683C180.857 6.30143 179.706 5 178.286 5Z" fill="#313759"/>
<path fill-rule="evenodd" clip-rule="evenodd" d="M168 16.1428C168 17.563 169.107 18.7143 170.473 18.7143L186.956 18.7143C188.322 18.7143 189.429 17.563 189.429 16.1428C189.429 14.7227 188.322 13.5714 186.956 13.5714L170.473 13.5714C169.107 13.5714 168 14.7227 168 16.1428Z" fill="#313759"/>
<path fill-rule="evenodd" clip-rule="evenodd" d="M198 23.6486C198 22.3436 196.909 21.2857 195.564 21.2857H185.008C183.662 21.2857 182.571 22.3436 182.571 23.6486V33.4942C182.571 34.7992 183.662 35.8571 185.008 35.8571C186.353 35.8571 187.444 34.7992 187.444 33.4942V29.1787L192.662 34.0203C193.634 34.9223 195.176 34.8891 196.106 33.946C197.036 33.003 197.002 31.5072 196.03 30.6052L191.079 26.0116H195.564C196.909 26.0116 198 24.9537 198 23.6486Z" fill="#18B3FF"/>
<path d="M5.076 30.216C4.164 30.216 3.396 29.976 2.772 29.496C2.172 28.992 1.872 28.248 1.872 27.264V7.428C1.872 6.444 2.172 5.7 2.772 5.196C3.396 4.692 4.164 4.44 5.076 4.44C5.988 4.44 6.744 4.692 7.344 5.196C7.968 5.7 8.28 6.444 8.28 7.428V27.264C8.28 28.248 7.968 28.992 7.344 29.496C6.744 29.976 5.988 30.216 5.076 30.216ZM26.397 24.312C26.949 24.312 27.393 24.528 27.729 24.96C28.089 25.392 28.269 25.956 28.269 26.652C28.269 27.612 27.801 28.344 26.865 28.848C26.049 29.256 25.077 29.604 23.949 29.892C22.845 30.156 21.825 30.288 20.889 30.288C18.921 30.288 17.205 29.916 15.741 29.172C14.277 28.428 13.149 27.36 12.357 25.968C11.565 24.576 11.169 22.944 11.169 21.072C11.169 19.296 11.541 17.712 12.285 16.32C13.053 14.904 14.109 13.812 15.453 13.044C16.821 12.252 18.357 11.856 20.061 11.856C21.717 11.856 23.169 12.216 24.417 12.936C25.665 13.656 26.625 14.676 27.297 15.996C27.993 17.316 28.341 18.864 28.341 20.64C28.341 21.192 28.209 21.624 27.945 21.936C27.705 22.224 27.345 22.368 26.865 22.368H17.361C17.529 23.52 17.901 24.348 18.477 24.852C19.053 25.356 19.905 25.608 21.033 25.608C21.633 25.608 22.185 25.548 22.689 25.428C23.193 25.284 23.757 25.092 24.381 24.852C24.741 24.708 25.089 24.588 25.425 24.492C25.785 24.372 26.109 24.312 26.397 24.312ZM20.241 16.176C19.401 16.176 18.729 16.452 18.225 17.004C17.721 17.532 17.421 18.312 17.325 19.344H22.977C22.833 17.232 21.921 16.176 20.241 16.176ZM48.9386 25.032C49.5626 25.632 49.8746 26.328 49.8746 27.12C49.8746 27.912 49.5866 28.62 49.0106 29.244C48.4586 29.868 47.7866 30.18 46.9946 30.18C46.3226 30.18 45.6506 29.88 44.9786 29.28L37.6706 22.332V27.192C37.6706 28.176 37.3586 28.92 36.7346 29.424C36.1346 29.928 35.3786 30.18 34.4666 30.18C33.5546 30.18 32.7866 29.928 32.1626 29.424C31.5626 28.92 31.2626 28.176 31.2626 27.192V7.428C31.2626 6.444 31.5626 5.7 32.1626 5.196C32.7866 4.692 33.5546 4.44 34.4666 4.44C35.3786 4.44 36.1346 4.692 36.7346 5.196C37.3586 5.7 37.6706 6.444 37.6706 7.428V19.632L44.3306 12.864C44.9306 12.24 45.6266 11.928 46.4186 11.928C47.1866 11.928 47.8586 12.228 48.4346 12.828C49.0346 13.404 49.3346 14.064 49.3346 14.808C49.3346 15.552 49.0226 16.236 48.3986 16.86L44.4746 20.748L48.9386 25.032Z" fill="#18B3FF"/>
<path d="M74.7534 11.856C76.6974 11.856 78.1974 12.444 79.2534 13.62C80.3094 14.772 80.8374 16.728 80.8374 19.488V27.264C80.8374 28.248 80.5254 28.992 79.9014 29.496C79.3014 29.976 78.5454 30.216 77.6334 30.216C76.7214 30.216 75.9534 29.976 75.3294 29.496C74.7294 28.992 74.4294 28.248 74.4294 27.264V19.344C74.4294 18.384 74.2614 17.712 73.9254 17.328C73.5894 16.944 73.0974 16.752 72.4494 16.752C71.6094 16.752 70.9374 17.052 70.4334 17.652C69.9294 18.252 69.6774 19.08 69.6774 20.136V27.264C69.6774 28.248 69.3774 28.992 68.7774 29.496C68.1774 29.976 67.4094 30.216 66.4734 30.216C65.5614 30.216 64.7934 29.976 64.1694 29.496C63.5694 28.992 63.2694 28.248 63.2694 27.264V19.344C63.2694 18.384 63.1014 17.712 62.7654 17.328C62.4294 16.944 61.9374 16.752 61.2894 16.752C60.4494 16.752 59.7774 17.052 59.2734 17.652C58.7934 18.252 58.5534 19.08 58.5534 20.136V27.264C58.5534 28.248 58.2414 28.992 57.6174 29.496C57.0174 29.976 56.2614 30.216 55.3494 30.216C54.4374 30.216 53.6694 29.976 53.0454 29.496C52.4454 28.992 52.1454 28.248 52.1454 27.264V14.808C52.1454 13.872 52.4574 13.164 53.0814 12.684C53.7294 12.18 54.4974 11.928 55.3854 11.928C56.2254 11.928 56.9214 12.156 57.4734 12.612C58.0494 13.044 58.3494 13.68 58.3734 14.52C59.5494 12.744 61.3494 11.856 63.7734 11.856C66.3414 11.856 68.0574 12.9 68.9214 14.988C69.5214 14.028 70.3254 13.272 71.3334 12.72C72.3414 12.144 73.4814 11.856 74.7534 11.856ZM98.854 24.312C99.406 24.312 99.85 24.528 100.186 24.96C100.546 25.392 100.726 25.956 100.726 26.652C100.726 27.612 100.258 28.344 99.322 28.848C98.506 29.256 97.534 29.604 96.406 29.892C95.302 30.156 94.282 30.288 93.346 30.288C91.378 30.288 89.662 29.916 88.198 29.172C86.734 28.428 85.606 27.36 84.814 25.968C84.022 24.576 83.626 22.944 83.626 21.072C83.626 19.296 83.998 17.712 84.742 16.32C85.51 14.904 86.566 13.812 87.91 13.044C89.278 12.252 90.814 11.856 92.518 11.856C94.174 11.856 95.626 12.216 96.874 12.936C98.122 13.656 99.082 14.676 99.754 15.996C100.45 17.316 100.798 18.864 100.798 20.64C100.798 21.192 100.666 21.624 100.402 21.936C100.162 22.224 99.802 22.368 99.322 22.368H89.818C89.986 23.52 90.358 24.348 90.934 24.852C91.51 25.356 92.362 25.608 93.49 25.608C94.09 25.608 94.642 25.548 95.146 25.428C95.65 25.284 96.214 25.092 96.838 24.852C97.198 24.708 97.546 24.588 97.882 24.492C98.242 24.372 98.566 24.312 98.854 24.312ZM92.698 16.176C91.858 16.176 91.186 16.452 90.682 17.004C90.178 17.532 89.878 18.312 89.782 19.344H95.434C95.29 17.232 94.378 16.176 92.698 16.176ZM119.2 4.44C120.16 4.44 120.94 4.716 121.54 5.268C122.164 5.796 122.476 6.48 122.476 7.32V27.264C122.476 28.176 122.188 28.896 121.612 29.424C121.036 29.952 120.268 30.216 119.308 30.216C118.42 30.216 117.688 29.988 117.112 29.532C116.56 29.052 116.248 28.404 116.176 27.588C115.672 28.428 114.928 29.088 113.944 29.568C112.984 30.048 111.916 30.288 110.74 30.288C109.228 30.288 107.872 29.904 106.672 29.136C105.496 28.344 104.572 27.24 103.9 25.824C103.228 24.408 102.892 22.788 102.892 20.964C102.892 19.14 103.216 17.544 103.864 16.176C104.536 14.784 105.46 13.716 106.636 12.972C107.836 12.228 109.204 11.856 110.74 11.856C111.868 11.856 112.9 12.084 113.836 12.54C114.796 12.996 115.54 13.608 116.068 14.376V7.212C116.068 6.372 116.344 5.7 116.896 5.196C117.472 4.692 118.24 4.44 119.2 4.44ZM112.684 25.5C113.812 25.5 114.676 25.116 115.276 24.348C115.876 23.58 116.176 22.476 116.176 21.036C116.176 19.62 115.876 18.54 115.276 17.796C114.676 17.028 113.812 16.644 112.684 16.644C111.58 16.644 110.728 17.016 110.128 17.76C109.528 18.504 109.228 19.572 109.228 20.964C109.228 22.404 109.528 23.52 110.128 24.312C110.752 25.104 111.604 25.5 112.684 25.5Z" fill="#313759"/>
<path d="M141.844 24.744C142.9 24.744 143.68 24.96 144.184 25.392C144.712 25.8 144.976 26.448 144.976 27.336C144.976 28.248 144.712 28.92 144.184 29.352C143.68 29.784 142.9 30 141.844 30H128.704C127.84 30 127.156 29.748 126.652 29.244C126.148 28.716 125.896 28.056 125.896 27.264C125.896 26.232 126.304 25.296 127.12 24.456L134.752 16.5C136.336 14.844 137.128 13.32 137.128 11.928C137.128 11.112 136.888 10.488 136.408 10.056C135.952 9.624 135.292 9.408 134.428 9.408C133.732 9.408 133.084 9.516 132.484 9.732C131.908 9.924 131.236 10.212 130.468 10.596L129.748 10.956C129.652 11.004 129.46 11.112 129.172 11.28C128.908 11.424 128.668 11.532 128.452 11.604C128.236 11.676 128.008 11.712 127.768 11.712C127.168 11.712 126.664 11.448 126.256 10.92C125.848 10.368 125.644 9.72 125.644 8.976C125.644 8.448 125.716 8.016 125.86 7.68C126.028 7.344 126.328 7.032 126.76 6.744C127.888 5.976 129.148 5.376 130.54 4.944C131.956 4.512 133.348 4.296 134.716 4.296C136.492 4.296 138.052 4.596 139.396 5.196C140.74 5.772 141.772 6.612 142.492 7.716C143.236 8.796 143.608 10.044 143.608 11.46C143.608 12.924 143.308 14.268 142.708 15.492C142.132 16.692 141.136 18.036 139.72 19.524L134.608 24.744H141.844ZM164.509 20.676C166.597 20.676 167.641 21.504 167.641 23.16C167.641 24.864 166.597 25.716 164.509 25.716H163.717V26.94C163.717 28.02 163.417 28.836 162.817 29.388C162.217 29.94 161.437 30.216 160.477 30.216C159.517 30.216 158.737 29.94 158.137 29.388C157.561 28.836 157.273 28.02 157.273 26.94V25.716H149.245C148.381 25.716 147.697 25.452 147.193 24.924C146.689 24.396 146.437 23.736 146.437 22.944C146.437 22.104 146.701 21.312 147.229 20.568L157.525 5.88C157.861 5.4 158.281 5.04 158.785 4.8C159.313 4.536 159.853 4.404 160.405 4.404C161.317 4.404 162.097 4.692 162.745 5.268C163.393 5.844 163.717 6.648 163.717 7.68V20.676H164.509ZM152.953 20.676H157.273V14.448L152.953 20.676Z" fill="#00BF93"/>
</svg>
