<svg width="90" height="90" viewBox="0 0 90 90" fill="none" xmlns="http://www.w3.org/2000/svg">
<path d="M90 45.0105C90 69.8698 69.8489 90.0209 44.9895 90.0209C20.1511 90 0 69.8698 0 45.0105C0 20.1511 20.1511 0 45.0105 0C69.8489 0 90 20.1511 90 45.0105Z" fill="white"/>
<path d="M57.2518 73.6573H32.7482C30.551 73.6573 28.7515 71.8786 28.7515 69.6605V19.2932C28.7515 17.096 30.5301 15.2964 32.7482 15.2964H57.2518C59.449 15.2964 61.2486 17.096 61.2486 19.2932V69.6605C61.2486 71.8786 59.4699 73.6573 57.2518 73.6573Z" fill="#7A8AA3"/>
<path d="M48.2539 71.9205H41.7252C41.0974 71.9205 40.5952 71.4183 40.5952 70.7905V68.5096C40.5952 67.8819 41.0974 67.3797 41.7252 67.3797H48.2539C48.8817 67.3797 49.3839 67.8819 49.3839 68.5096V70.7905C49.3839 71.4183 48.8817 71.9205 48.2539 71.9205Z" fill="#2E476E"/>
<path d="M48.777 18.0795H41.2439C41.0346 18.0795 40.8463 17.9121 40.8463 17.6819V16.8868C40.8463 16.6775 41.0137 16.4892 41.2439 16.4892H48.777C48.9863 16.4892 49.1746 16.6566 49.1746 16.8868V17.6819C49.1746 17.9121 48.9863 18.0795 48.777 18.0795Z" fill="#2E476E"/>
<path d="M54.9501 66.1451H35.05C32.8529 66.1451 31.0533 64.3455 31.0533 62.1483V23.3736C31.0533 21.1765 32.8529 19.3769 35.05 19.3769H54.9501C57.1472 19.3769 58.9468 21.1555 58.9468 23.3736V62.1483C58.9468 64.3664 57.1681 66.1451 54.9501 66.1451Z" fill="#CCD9E7"/>
<path d="M76.0637 26.8891H47.1239C44.2362 26.8891 41.8926 29.2327 41.8926 32.1204V47.1239C41.8926 50.0116 44.2362 52.3553 47.1239 52.3553H50.9114V59.428L58.1097 52.3553H76.0637C78.9514 52.3553 81.2951 50.0116 81.2951 47.1239V32.1204C81.2951 29.2327 78.9514 26.8891 76.0637 26.8891Z" fill="#0071A8"/>
<path d="M57.7959 33.0202L57.9633 36.3683H57.5448C57.4611 35.7824 57.3565 35.3639 57.2309 35.1128C57.0217 34.7152 56.7287 34.4013 56.352 34.213C55.9963 34.0247 55.515 33.92 54.9291 33.92H52.9203V44.8431C52.9203 45.7219 53.0249 46.266 53.2132 46.4962C53.4853 46.7891 53.8829 46.9356 54.4478 46.9356H54.95V47.3332H48.8817V46.9356H49.3839C49.9907 46.9356 50.4092 46.7473 50.6604 46.3915C50.8068 46.1614 50.8905 45.6592 50.8905 44.8431V33.8991H49.1747C48.505 33.8991 48.0238 33.9409 47.7517 34.0456C47.396 34.1711 47.0821 34.4432 46.8101 34.8198C46.559 35.1965 46.3916 35.7196 46.3497 36.3683H45.9521L46.1195 33.0202H57.7959Z" fill="#E4F0FA"/>
<path d="M75.7708 34.1293H62.5878C62.0019 34.1293 61.5415 33.6689 61.5415 33.083C61.5415 32.4971 62.0019 32.0367 62.5878 32.0367H75.7708C76.3567 32.0367 76.817 32.4971 76.817 33.083C76.817 33.6689 76.3357 34.1293 75.7708 34.1293Z" fill="white"/>
<path d="M75.7708 38.5236H62.5878C62.0019 38.5236 61.5415 38.0632 61.5415 37.4773C61.5415 36.8914 62.0019 36.4311 62.5878 36.4311H75.7708C76.3567 36.4311 76.817 36.8914 76.817 37.4773C76.817 38.0632 76.3357 38.5236 75.7708 38.5236Z" fill="white"/>
<path d="M75.7708 42.9179H62.5878C62.0019 42.9179 61.5415 42.4576 61.5415 41.8717C61.5415 41.2858 62.0019 40.8254 62.5878 40.8254H75.7708C76.3567 40.8254 76.817 41.2858 76.817 41.8717C76.817 42.4576 76.3357 42.9179 75.7708 42.9179Z" fill="white"/>
<path d="M75.7708 47.3123H62.5878C62.0019 47.3123 61.5415 46.8519 61.5415 46.266C61.5415 45.6801 62.0019 45.2197 62.5878 45.2197H75.7708C76.3567 45.2197 76.817 45.6801 76.817 46.266C76.817 46.8519 76.3357 47.3123 75.7708 47.3123Z" fill="white"/>
</svg>
