<svg width="59" height="59" viewBox="0 0 59 59" fill="none" xmlns="http://www.w3.org/2000/svg">
<circle cx="29.5" cy="29.5" r="29.5" fill="url(#paint0_linear)"/>
<g clip-path="url(#clip0)">
<path d="M29.6582 43.2917L29.342 43.6079C29.0455 43.9044 29.0455 44.3788 29.342 44.6752C29.4803 44.8136 29.678 44.8927 29.8756 44.8927C30.0733 44.8927 30.2709 44.8136 30.4093 44.6752L30.7255 44.359C31.022 44.0625 31.022 43.5882 30.7255 43.2917C30.4291 42.9952 29.9547 42.9952 29.6582 43.2917Z" fill="#18B3FF"/>
<path d="M40.7265 37.1448C39.3627 35.781 37.1293 35.8205 35.726 37.2238L31.1998 41.75C30.9033 42.0465 30.9033 42.5208 31.1998 42.8173C31.4963 43.1138 31.9706 43.1138 32.2671 42.8173L36.7933 38.2911C37.6036 37.4808 38.8884 37.4412 39.6592 38.2121L45.0155 43.5684C45.7863 44.3392 45.7468 45.6042 44.9562 46.4145C42.8216 48.2527 40.9439 49.2804 39.422 49.4781C38.9872 49.5176 31.2591 50.1303 21.5743 40.4455C11.8894 30.7607 12.5021 23.0326 12.5417 22.5978C12.7393 21.0561 13.7671 19.1982 15.6052 17.0636C16.4156 16.273 17.6806 16.2532 18.4514 17.0043L23.8077 22.3606C24.5785 23.1314 24.539 24.4161 23.7286 25.2265L21.0208 27.9145C20.8232 28.1122 20.7441 28.4086 20.8429 28.6854C21.515 30.6421 23.4322 33.3697 25.9818 36.0182L26.0016 36.0379C27.3259 37.3226 28.7292 38.4888 30.0534 39.398C30.3894 39.6351 30.8638 39.5561 31.101 39.2003C31.3381 38.8643 31.2591 38.39 30.9033 38.1528C29.6581 37.2831 28.3339 36.196 27.0689 34.9508C24.8948 32.6976 23.1752 30.3258 22.4637 28.6261L24.8157 26.274C26.219 24.8707 26.2388 22.6373 24.8948 21.2735L19.4989 15.937C18.1352 14.5732 15.9017 14.6127 14.4984 16.016C14.4786 16.0358 14.4786 16.0358 14.4589 16.0556C12.4231 18.4273 11.2767 20.5817 11.0395 22.4199V22.4396C11 22.6768 10.8024 24.9103 11.9092 28.3494C12.5417 30.3258 13.4706 32.3221 14.696 34.3184C16.1982 36.7692 18.1549 39.2003 20.4872 41.5326C22.8194 43.8648 25.2505 45.8216 27.7014 47.3237C29.6779 48.5491 31.6939 49.4781 33.6704 50.1106C36.1015 50.8814 37.9199 51.0198 38.8686 51.0198C39.2639 51.0198 39.5011 51 39.5801 51H39.5999C41.438 50.7628 43.5924 49.5967 45.9642 47.5609C45.984 47.5411 45.984 47.5411 46.0037 47.5214C47.4071 46.1181 47.4268 43.8846 46.0828 42.5208L40.7265 37.1448Z" fill="#18B3FF"/>
<path d="M41.4974 44.774C41.6951 44.774 41.8927 44.695 42.0311 44.5566C42.3276 44.2601 42.3276 43.7858 42.0311 43.4893L39.6593 41.1175C39.3628 40.821 38.8885 40.821 38.592 41.1175C38.2955 41.414 38.2955 41.8883 38.592 42.1848L40.9638 44.5566C41.1219 44.695 41.3195 44.774 41.4974 44.774Z" fill="#18B3FF"/>
<path d="M15.8423 26.5705C15.447 26.7088 15.2296 27.1239 15.3679 27.5192C16.2574 30.1677 18.2932 34.2986 22.9972 39.0026C23.1356 39.141 23.3332 39.22 23.5309 39.22C23.7285 39.22 23.9262 39.141 24.0645 39.0026C24.361 38.7061 24.361 38.2318 24.0645 37.9353C19.5779 33.4487 17.6409 29.5352 16.8108 27.0448C16.6724 26.6495 16.2376 26.4321 15.8423 26.5705Z" fill="#18B3FF"/>
<path d="M48 34.4765C48 34.0615 47.6443 33.7254 47.2292 33.7452C46.8141 33.7452 46.4781 34.101 46.4979 34.516C46.4979 34.6742 46.4979 34.8323 46.4979 34.9904C46.4979 35.4055 46.8339 35.7415 47.249 35.7415C47.664 35.7415 48 35.4055 48 34.9904C48 34.8323 48 34.6544 48 34.4765Z" fill="#18B3FF"/>
<path d="M27.0096 15.5021C32.2078 15.5021 37.1095 17.5379 40.7858 21.2142C43.8098 24.2382 45.727 28.0726 46.3002 32.2826C46.3595 32.6581 46.6757 32.9348 47.0513 32.9348C47.0908 32.9348 47.1106 32.9348 47.1501 32.9348C47.5652 32.8755 47.8419 32.5 47.8023 32.0849C47.1699 27.539 45.1143 23.4081 41.8531 20.1469C37.8803 16.1939 32.6229 14 27.0096 14C26.5945 14 26.2585 14.336 26.2585 14.7511C26.2585 15.1661 26.5945 15.5021 27.0096 15.5021Z" fill="#18B3FF"/>
<path d="M28.5907 20.5818C28.1756 20.5818 27.8396 20.9178 27.8396 21.3328C27.8396 21.7479 28.1756 22.0839 28.5907 22.0839C28.7488 22.0839 28.9069 22.0839 29.0453 22.0839C29.065 22.0839 29.065 22.0839 29.0848 22.0839C29.4801 22.0839 29.8161 21.7677 29.8359 21.3526C29.8556 20.9375 29.5196 20.5818 29.1046 20.562C28.9464 20.6015 28.7686 20.5818 28.5907 20.5818Z" fill="#18B3FF"/>
<path d="M31.5554 20.9375C31.1403 20.8386 30.745 21.0956 30.6462 21.4909C30.5474 21.906 30.8043 22.3013 31.1996 22.4001C36.3188 23.6057 39.8962 28.1319 39.8962 33.4092C39.8962 33.8242 40.2322 34.1602 40.6473 34.1602C41.0623 34.1602 41.3983 33.8242 41.3983 33.4092C41.3983 30.5037 40.4101 27.6576 38.5917 25.4044C36.8326 23.1709 34.3225 21.5897 31.5554 20.9375Z" fill="#18B3FF"/>
</g>
<defs>
<linearGradient id="paint0_linear" x1="29.5" y1="90.0206" x2="29.5" y2="15.5103" gradientUnits="userSpaceOnUse">
<stop stop-color="#83EBF1"/>
<stop offset="1" stop-color="white" stop-opacity="0"/>
</linearGradient>
<clipPath id="clip0">
<rect width="37" height="37" fill="white" transform="translate(11 14)"/>
</clipPath>
</defs>
</svg>
