<svg width="120" height="40" viewBox="0 0 120 40" fill="none" xmlns="http://www.w3.org/2000/svg">
<path d="M113.368 40H5.93368C2.65271 40 0 37.3473 0 34.0663V5.93368C0 2.65271 2.65271 0 5.93368 0H113.438C116.719 0 119.372 2.65271 119.372 5.93368V34.0663C119.302 37.3473 116.649 40 113.368 40ZM5.93368 1.39616C3.42059 1.39616 1.39616 3.42059 1.39616 5.93368V34.0663C1.39616 36.5794 3.42059 38.6038 5.93368 38.6038H113.438C115.951 38.6038 117.976 36.5794 117.976 34.0663V5.93368C117.976 3.42059 115.951 1.39616 113.438 1.39616H5.93368Z" fill="white"/>
<path d="M47.8884 21.9892C47.8884 23.5948 47.3998 24.8513 46.4923 25.8287C45.4452 26.9456 43.9792 27.5041 42.3038 27.5041C40.6284 27.5041 39.2322 26.9456 38.1153 25.7589C36.9286 24.6419 36.3701 23.176 36.3701 21.5006C36.3701 19.8252 36.9286 18.3592 38.1153 17.2423C39.3021 16.1253 40.6982 15.4971 42.3038 15.4971C43.1415 15.4971 43.9094 15.6367 44.6773 15.9857C45.4452 16.3348 46.0036 16.7536 46.4923 17.2423L45.3754 18.2894C44.6075 17.3819 43.5603 16.963 42.234 16.963C41.0473 16.963 40.0001 17.3819 39.0926 18.2196C38.1851 19.0573 37.7663 20.1742 37.7663 21.5006C37.7663 22.8269 38.1851 23.9438 39.0926 24.7815C40.0001 25.6192 41.0473 26.0381 42.234 26.0381C43.4905 26.0381 44.6075 25.6192 45.4452 24.7815C46.0036 24.2231 46.3527 23.4552 46.4225 22.4779H42.234V21.0817H47.8186C47.8884 21.4308 47.8884 21.71 47.8884 21.9892Z" fill="white"/>
<path d="M49.6335 20.3838C50.4014 19.6159 51.3787 19.197 52.4957 19.197C53.6824 19.197 54.6597 19.6159 55.3578 20.3838C56.1257 21.1516 56.4747 22.1988 56.4747 23.3855C56.4747 24.5722 56.1257 25.5496 55.3578 26.3872C54.5899 27.1551 53.6126 27.574 52.4957 27.574C51.3089 27.574 50.3316 27.1551 49.6335 26.3872C48.8656 25.6194 48.5166 24.5722 48.5166 23.3855C48.5166 22.129 48.8656 21.1516 49.6335 20.3838ZM50.7505 25.4099C51.2391 25.8986 51.8674 26.1778 52.5655 26.1778C53.2635 26.1778 53.8918 25.8986 54.3805 25.4099C54.8691 24.9213 55.1484 24.2232 55.1484 23.3855C55.1484 22.5478 54.8691 21.8497 54.3805 21.3611C53.8918 20.8724 53.2635 20.5932 52.5655 20.5932C51.8674 20.5932 51.2391 20.8724 50.7505 21.3611C50.2618 21.8497 49.9826 22.5478 49.9826 23.3855C49.9826 24.2232 50.2618 24.8515 50.7505 25.4099Z" fill="white"/>
<path d="M58.2202 20.3838C58.988 19.6159 59.9654 19.197 61.0823 19.197C62.269 19.197 63.2463 19.6159 63.9444 20.3838C64.7123 21.1516 65.0613 22.1988 65.0613 23.3855C65.0613 24.5722 64.7123 25.5496 63.9444 26.3872C63.1765 27.1551 62.1992 27.574 61.0823 27.574C59.8956 27.574 58.9182 27.1551 58.2202 26.3872C57.5221 25.6194 57.1032 24.5722 57.1032 23.3855C57.0334 22.129 57.4523 21.1516 58.2202 20.3838ZM59.2673 25.4099C59.7559 25.8986 60.3842 26.1778 61.0823 26.1778C61.7804 26.1778 62.4086 25.8986 62.8973 25.4099C63.386 24.9213 63.6652 24.2232 63.6652 23.3855C63.6652 22.5478 63.386 21.8497 62.8973 21.3611C62.4086 20.8724 61.7804 20.5932 61.0823 20.5932C60.3842 20.5932 59.7559 20.8724 59.2673 21.3611C58.7786 21.8497 58.4994 22.5478 58.4994 23.3855C58.5692 24.2232 58.7786 24.8515 59.2673 25.4099Z" fill="white"/>
<path d="M69.4595 30.9946C68.552 30.9946 67.7841 30.7852 67.1559 30.2965C66.5974 29.8078 66.1785 29.3192 65.8993 28.6909L67.2257 28.1324C67.3653 28.5513 67.6445 28.9003 68.0634 29.1796C68.4822 29.4588 68.9011 29.5984 69.4595 29.5984C70.2972 29.5984 70.9255 29.389 71.3443 28.9003C71.833 28.4117 72.0424 27.7834 72.0424 26.9457V26.1778H71.9726C71.6934 26.5269 71.3443 26.8759 70.8557 27.1551C70.367 27.4344 69.8784 27.574 69.2501 27.574C68.203 27.574 67.3653 27.1551 66.5974 26.3872C65.8295 25.6194 65.4805 24.5722 65.4805 23.3855C65.4805 22.1988 65.8295 21.2215 66.5974 20.3838C67.3653 19.6159 68.203 19.197 69.2501 19.197C69.8086 19.197 70.367 19.3366 70.8557 19.5461C71.3443 19.8253 71.6934 20.1045 71.9726 20.5234H72.0424V19.4064H73.4386V26.8759C73.4386 28.2023 73.0197 29.2494 72.2518 29.9475C71.5538 30.6455 70.5765 30.9946 69.4595 30.9946ZM69.5991 26.1778C70.2972 26.1778 70.8557 25.8986 71.3443 25.4099C71.833 24.9213 72.0424 24.2232 72.0424 23.3157C72.0424 22.478 71.833 21.7799 71.3443 21.2215C70.8557 20.7328 70.2972 20.4536 69.5991 20.4536C68.9011 20.4536 68.3426 20.7328 67.8539 21.2215C67.3653 21.7101 67.0861 22.4082 67.0861 23.2459C67.0861 24.0836 67.3653 24.7817 67.8539 25.2703C68.3426 25.8986 68.9011 26.1778 69.5991 26.1778Z" fill="white"/>
<path d="M76.3703 27.2944H74.9043V15.7761H76.3703V27.2944Z" fill="white"/>
<path d="M81.2564 27.5038C80.0697 27.5038 79.0924 27.0849 78.3943 26.3171C77.6264 25.5492 77.2773 24.5021 77.2773 23.3153C77.2773 22.1984 77.6264 21.2211 78.3245 20.3834C79.0225 19.5457 79.93 19.1268 81.1168 19.1268C82.3035 19.1268 83.211 19.4759 83.9091 20.2438C84.6072 21.0116 84.9562 21.989 84.9562 23.3153V23.5945H78.7433C78.8131 24.3624 79.0225 24.9907 79.5112 25.4794C79.9999 25.968 80.5583 26.1774 81.1866 26.1774C82.2337 26.1774 82.9318 25.7586 83.3506 24.8511L84.677 25.4096C84.3978 26.0378 83.9789 26.5265 83.4205 26.9453C82.7922 27.2944 82.0941 27.5038 81.2564 27.5038ZM83.3506 22.4078C83.3506 21.989 83.1412 21.5003 82.7224 21.1513C82.3733 20.7324 81.8149 20.523 81.047 20.523C80.4885 20.523 79.9999 20.6626 79.6508 21.0116C79.232 21.3607 78.9527 21.7795 78.8131 22.4078H83.3506Z" fill="white"/>
<path d="M90.6808 27.2944H89.2148V15.7761H93.1241C94.1014 15.7761 94.9391 16.1252 95.6372 16.7534C96.3353 17.3817 96.6843 18.2194 96.6843 19.1967C96.6843 20.174 96.3353 21.0117 95.6372 21.64C94.9391 22.2683 94.1014 22.6173 93.1241 22.6173H90.6808V27.2944ZM90.6808 21.2211H93.1241C93.7524 21.2211 94.241 21.0117 94.5901 20.5929C94.9391 20.174 95.1485 19.6854 95.1485 19.1967C95.1485 18.7081 94.9391 18.2194 94.5901 17.8006C94.241 17.3817 93.7524 17.1723 93.1241 17.1723H90.6808V21.2211Z" fill="white"/>
<path d="M99.1281 27.2944H97.6621V15.7761H99.1281V27.2944Z" fill="white"/>
<path d="M102.967 27.5042C102.129 27.5042 101.431 27.2948 100.873 26.8061C100.314 26.3174 100.035 25.6892 100.035 24.9213C100.035 24.0836 100.384 23.3855 101.012 22.8968C101.641 22.4082 102.478 22.1988 103.456 22.1988C104.293 22.1988 105.061 22.3384 105.55 22.6874V22.478C105.55 21.9195 105.341 21.4309 104.992 21.0818C104.573 20.7328 104.084 20.5932 103.526 20.5932C103.107 20.5932 102.688 20.663 102.339 20.8724C101.99 21.0818 101.78 21.3611 101.641 21.7101L100.314 21.1516C100.524 20.663 100.873 20.2441 101.362 19.8253C101.92 19.4064 102.618 19.197 103.456 19.197C104.433 19.197 105.271 19.4763 105.969 20.1045C106.597 20.663 106.946 21.5007 106.946 22.6176V27.3646H105.55V26.2476H105.48C104.922 27.0853 104.084 27.5042 102.967 27.5042ZM103.177 26.1778C103.805 26.1778 104.363 25.9684 104.852 25.4797C105.341 25.0609 105.62 24.5024 105.62 23.8742C105.201 23.5251 104.573 23.3855 103.735 23.3855C103.037 23.3855 102.478 23.5251 102.129 23.8742C101.78 24.1534 101.571 24.5722 101.571 24.9911C101.571 25.3401 101.711 25.6892 102.06 25.8986C102.409 26.0382 102.758 26.1778 103.177 26.1778Z" fill="white"/>
<path d="M110.227 30.7153H108.691L110.506 26.7363L107.295 19.4064H108.901L111.204 25.0609L113.508 19.4064H115.113L110.227 30.7153Z" fill="white"/>
<path d="M38.7591 10.6318L38.2173 9.1512C38.1907 9.08553 38.163 9.00755 38.1342 8.91726C38.1055 8.82697 38.0768 8.72949 38.048 8.62483C38.0214 8.72949 37.9937 8.82799 37.9649 8.92034C37.9362 9.01063 37.9085 9.08964 37.8818 9.15736L37.3431 10.6318H38.7591ZM40.2212 12.3125H39.581C39.5091 12.3125 39.4507 12.295 39.4055 12.2602C39.3604 12.2232 39.3265 12.1781 39.3039 12.1247L38.9715 11.2167H37.1277L36.7952 12.1247C36.7788 12.1719 36.747 12.215 36.6998 12.254C36.6526 12.293 36.5941 12.3125 36.5243 12.3125H35.8779L37.6294 7.86145H38.4728L40.2212 12.3125Z" fill="white"/>
<path d="M44.4342 7.86145V12.3125H44.0095C43.9438 12.3125 43.8884 12.3022 43.8432 12.2817C43.8001 12.2591 43.7581 12.2222 43.717 12.1709L41.393 9.20353C41.4053 9.33897 41.4115 9.46415 41.4115 9.57907V12.3125H40.6819V7.86145H41.116C41.1509 7.86145 41.1806 7.8635 41.2052 7.8676C41.2319 7.86965 41.2545 7.87581 41.273 7.88607C41.2935 7.89428 41.313 7.90762 41.3314 7.92609C41.3499 7.9425 41.3704 7.96508 41.393 7.99381L43.7263 10.9735C43.7201 10.9017 43.715 10.8309 43.7109 10.7611C43.7068 10.6913 43.7047 10.6267 43.7047 10.5672V7.86145H44.4342Z" fill="white"/>
<path d="M49.3778 10.087C49.3778 10.4133 49.3235 10.7129 49.2147 10.9858C49.1059 11.2587 48.953 11.4937 48.756 11.6907C48.559 11.8877 48.322 12.0406 48.045 12.1493C47.7679 12.2581 47.4601 12.3125 47.1215 12.3125H45.4255V7.86145H47.1215C47.4601 7.86145 47.7679 7.91685 48.045 8.02767C48.322 8.13643 48.559 8.28931 48.756 8.48631C48.953 8.68127 49.1059 8.91521 49.2147 9.18814C49.3235 9.46107 49.3778 9.76068 49.3778 10.087ZM48.5283 10.087C48.5283 9.84276 48.4954 9.62421 48.4298 9.43131C48.3661 9.23636 48.2728 9.07219 48.1496 8.93881C48.0286 8.80337 47.8808 8.69973 47.7064 8.62791C47.534 8.55609 47.3391 8.52017 47.1215 8.52017H46.2566V11.6538H47.1215C47.3391 11.6538 47.534 11.6178 47.7064 11.546C47.8808 11.4742 48.0286 11.3716 48.1496 11.2382C48.2728 11.1028 48.3661 10.9386 48.4298 10.7457C48.4954 10.5507 48.5283 10.3312 48.5283 10.087Z" fill="white"/>
<path d="M51.454 9.97923C51.61 9.97923 51.7454 9.95973 51.8603 9.92074C51.9773 9.88175 52.0727 9.8284 52.1466 9.76068C52.2225 9.69091 52.279 9.60882 52.3159 9.51442C52.3528 9.42003 52.3713 9.3164 52.3713 9.20353C52.3713 8.9778 52.2964 8.80439 52.1466 8.68332C51.9988 8.56224 51.7721 8.50171 51.4663 8.50171H50.9369V9.97923H51.454ZM53.5841 12.3125H52.8361C52.6945 12.3125 52.5919 12.2571 52.5283 12.1463L51.5925 10.7211C51.5576 10.6677 51.5187 10.6297 51.4756 10.6072C51.4345 10.5846 51.373 10.5733 51.2909 10.5733H50.9369V12.3125H50.1089V7.86145H51.4663C51.768 7.86145 52.0266 7.89325 52.242 7.95687C52.4595 8.01843 52.6371 8.10565 52.7745 8.21851C52.9141 8.33138 53.0167 8.46682 53.0824 8.62483C53.148 8.78079 53.1809 8.95317 53.1809 9.14197C53.1809 9.29177 53.1583 9.43337 53.1131 9.56675C53.0701 9.70014 53.0064 9.82122 52.9223 9.92998C52.8402 10.0387 52.7376 10.1342 52.6145 10.2162C52.4934 10.2983 52.3549 10.363 52.1989 10.4102C52.2523 10.441 52.3015 10.4779 52.3467 10.521C52.3918 10.562 52.4329 10.6113 52.4698 10.6687L53.5841 12.3125Z" fill="white"/>
<path d="M58.2495 10.087C58.2495 10.4133 58.1951 10.7159 58.0863 10.995C57.9796 11.2721 57.8278 11.5122 57.6308 11.7153C57.4338 11.9185 57.1967 12.0775 56.9197 12.1924C56.6427 12.3053 56.3348 12.3617 55.9962 12.3617C55.6597 12.3617 55.3529 12.3053 55.0759 12.1924C54.7988 12.0775 54.5608 11.9185 54.3617 11.7153C54.1647 11.5122 54.0118 11.2721 53.9031 10.995C53.7943 10.7159 53.7399 10.4133 53.7399 10.087C53.7399 9.76068 53.7943 9.45902 53.9031 9.18198C54.0118 8.90289 54.1647 8.66177 54.3617 8.45861C54.5608 8.25545 54.7988 8.09744 55.0759 7.98457C55.3529 7.86965 55.6597 7.81219 55.9962 7.81219C56.222 7.81219 56.4344 7.83887 56.6334 7.89223C56.8325 7.94353 57.0151 8.01741 57.1813 8.11386C57.3476 8.20825 57.4963 8.3242 57.6277 8.46169C57.7611 8.59713 57.8739 8.74899 57.9663 8.91726C58.0586 9.08553 58.1284 9.26817 58.1756 9.46517C58.2248 9.66218 58.2495 9.86944 58.2495 10.087ZM57.403 10.087C57.403 9.84276 57.3701 9.62421 57.3045 9.43131C57.2388 9.23636 57.1454 9.07117 57.0244 8.93573C56.9033 8.80029 56.7555 8.69666 56.5811 8.62483C56.4087 8.55301 56.2138 8.5171 55.9962 8.5171C55.7787 8.5171 55.5827 8.55301 55.4083 8.62483C55.2359 8.69666 55.0882 8.80029 54.9651 8.93573C54.844 9.07117 54.7506 9.23636 54.6849 9.43131C54.6193 9.62421 54.5864 9.84276 54.5864 10.087C54.5864 10.3312 54.6193 10.5507 54.6849 10.7457C54.7506 10.9386 54.844 11.1028 54.9651 11.2382C55.0882 11.3716 55.2359 11.4742 55.4083 11.546C55.5827 11.6178 55.7787 11.6538 55.9962 11.6538C56.2138 11.6538 56.4087 11.6178 56.5811 11.546C56.7555 11.4742 56.9033 11.3716 57.0244 11.2382C57.1454 11.1028 57.2388 10.9386 57.3045 10.7457C57.3701 10.5507 57.403 10.3312 57.403 10.087Z" fill="white"/>
<path d="M59.8077 12.3125H58.9766V7.86145H59.8077V12.3125Z" fill="white"/>
<path d="M64.7567 10.087C64.7567 10.4133 64.7023 10.7129 64.5935 10.9858C64.4848 11.2587 64.3319 11.4937 64.1349 11.6907C63.9379 11.8877 63.7009 12.0406 63.4238 12.1493C63.1468 12.2581 62.839 12.3125 62.5004 12.3125H60.8043V7.86145H62.5004C62.839 7.86145 63.1468 7.91685 63.4238 8.02767C63.7009 8.13643 63.9379 8.28931 64.1349 8.48631C64.3319 8.68127 64.4848 8.91521 64.5935 9.18814C64.7023 9.46107 64.7567 9.76068 64.7567 10.087ZM63.9071 10.087C63.9071 9.84276 63.8743 9.62421 63.8086 9.43131C63.745 9.23636 63.6516 9.07219 63.5285 8.93881C63.4074 8.80337 63.2597 8.69973 63.0852 8.62791C62.9128 8.55609 62.7179 8.52017 62.5004 8.52017H61.6354V11.6538H62.5004C62.7179 11.6538 62.9128 11.6178 63.0852 11.546C63.2597 11.4742 63.4074 11.3716 63.5285 11.2382C63.6516 11.1028 63.745 10.9386 63.8086 10.7457C63.8743 10.5507 63.9071 10.3312 63.9071 10.087Z" fill="white"/>
<path d="M69.132 10.6318L68.5902 9.1512C68.5636 9.08553 68.5359 9.00755 68.5071 8.91726C68.4784 8.82697 68.4497 8.72949 68.421 8.62483C68.3943 8.72949 68.3666 8.82799 68.3378 8.92034C68.3091 9.01063 68.2814 9.08964 68.2547 9.15736L67.716 10.6318H69.132ZM70.5941 12.3125H69.9539C69.8821 12.3125 69.8236 12.295 69.7784 12.2602C69.7333 12.2232 69.6994 12.1781 69.6768 12.1247L69.3444 11.2167H67.5006L67.1681 12.1247C67.1517 12.1719 67.1199 12.215 67.0727 12.254C67.0255 12.293 66.967 12.3125 66.8973 12.3125H66.2508L68.0023 7.86145H68.8457L70.5941 12.3125Z" fill="white"/>
<path d="M72.5016 10.0993C72.6535 10.0993 72.7858 10.0808 72.8987 10.0439C73.0115 10.0049 73.1049 9.9505 73.1788 9.88073C73.2547 9.8089 73.3112 9.72271 73.3481 9.62216C73.385 9.51955 73.4035 9.40566 73.4035 9.28048C73.4035 9.16146 73.385 9.05372 73.3481 8.95728C73.3112 8.86083 73.2557 8.77874 73.1819 8.71102C73.108 8.6433 73.0146 8.592 72.9018 8.55711C72.7889 8.52017 72.6555 8.50171 72.5016 8.50171H71.8829V10.0993H72.5016ZM72.5016 7.86145C72.7992 7.86145 73.0567 7.89633 73.2742 7.9661C73.4917 8.03588 73.6713 8.13335 73.8129 8.25853C73.9545 8.38371 74.0592 8.53351 74.1269 8.70794C74.1966 8.88237 74.2315 9.07322 74.2315 9.28048C74.2315 9.49596 74.1956 9.69398 74.1238 9.87457C74.052 10.0531 73.9442 10.207 73.8006 10.3363C73.6569 10.4656 73.4764 10.5661 73.2588 10.638C73.0434 10.7098 72.7909 10.7457 72.5016 10.7457H71.8829V12.3125H71.0549V7.86145H72.5016Z" fill="white"/>
<path d="M76.3132 10.0993C76.4651 10.0993 76.5975 10.0808 76.7103 10.0439C76.8232 10.0049 76.9166 9.9505 76.9904 9.88073C77.0664 9.8089 77.1228 9.72271 77.1597 9.62216C77.1967 9.51955 77.2151 9.40566 77.2151 9.28048C77.2151 9.16146 77.1967 9.05372 77.1597 8.95728C77.1228 8.86083 77.0674 8.77874 76.9935 8.71102C76.9196 8.6433 76.8263 8.592 76.7134 8.55711C76.6005 8.52017 76.4672 8.50171 76.3132 8.50171H75.6945V10.0993H76.3132ZM76.3132 7.86145C76.6108 7.86145 76.8683 7.89633 77.0859 7.9661C77.3034 8.03588 77.4829 8.13335 77.6245 8.25853C77.7661 8.38371 77.8708 8.53351 77.9385 8.70794C78.0083 8.88237 78.0432 9.07322 78.0432 9.28048C78.0432 9.49596 78.0073 9.69398 77.9354 9.87457C77.8636 10.0531 77.7559 10.207 77.6122 10.3363C77.4686 10.4656 77.288 10.5661 77.0705 10.638C76.855 10.7098 76.6026 10.7457 76.3132 10.7457H75.6945V12.3125H74.8665V7.86145H76.3132Z" fill="white"/>
<path d="M84.2456 10.087C84.2456 10.4133 84.1912 10.7159 84.0825 10.995C83.9757 11.2721 83.8239 11.5122 83.6269 11.7153C83.4299 11.9185 83.1929 12.0775 82.9158 12.1924C82.6388 12.3053 82.331 12.3617 81.9924 12.3617C81.6558 12.3617 81.349 12.3053 81.072 12.1924C80.795 12.0775 80.5569 11.9185 80.3579 11.7153C80.1609 11.5122 80.008 11.2721 79.8992 10.995C79.7905 10.7159 79.7361 10.4133 79.7361 10.087C79.7361 9.76068 79.7905 9.45902 79.8992 9.18198C80.008 8.90289 80.1609 8.66177 80.3579 8.45861C80.5569 8.25545 80.795 8.09744 81.072 7.98457C81.349 7.86965 81.6558 7.81219 81.9924 7.81219C82.2181 7.81219 82.4305 7.83887 82.6296 7.89223C82.8286 7.94353 83.0112 8.01741 83.1775 8.11386C83.3437 8.20825 83.4925 8.3242 83.6238 8.46169C83.7572 8.59713 83.8701 8.74899 83.9624 8.91726C84.0548 9.08553 84.1245 9.26817 84.1717 9.46517C84.221 9.66218 84.2456 9.86944 84.2456 10.087ZM83.3991 10.087C83.3991 9.84276 83.3663 9.62421 83.3006 9.43131C83.2349 9.23636 83.1416 9.07117 83.0205 8.93573C82.8994 8.80029 82.7517 8.69666 82.5772 8.62483C82.4049 8.55301 82.2099 8.5171 81.9924 8.5171C81.7748 8.5171 81.5789 8.55301 81.4044 8.62483C81.2321 8.69666 81.0843 8.80029 80.9612 8.93573C80.8401 9.07117 80.7467 9.23636 80.6811 9.43131C80.6154 9.62421 80.5826 9.84276 80.5826 10.087C80.5826 10.3312 80.6154 10.5507 80.6811 10.7457C80.7467 10.9386 80.8401 11.1028 80.9612 11.2382C81.0843 11.3716 81.2321 11.4742 81.4044 11.546C81.5789 11.6178 81.7748 11.6538 81.9924 11.6538C82.2099 11.6538 82.4049 11.6178 82.5772 11.546C82.7517 11.4742 82.8994 11.3716 83.0205 11.2382C83.1416 11.1028 83.2349 10.9386 83.3006 10.7457C83.3663 10.5507 83.3991 10.3312 83.3991 10.087Z" fill="white"/>
<path d="M88.7251 7.86145V12.3125H88.3003C88.2346 12.3125 88.1792 12.3022 88.134 12.2817C88.091 12.2591 88.0489 12.2222 88.0078 12.1709L85.6838 9.20353C85.6961 9.33897 85.7023 9.46415 85.7023 9.57907V12.3125H84.9728V7.86145H85.4068C85.4417 7.86145 85.4714 7.8635 85.4961 7.8676C85.5227 7.86965 85.5453 7.87581 85.5638 7.88607C85.5843 7.89428 85.6038 7.90762 85.6223 7.92609C85.6407 7.9425 85.6613 7.96508 85.6838 7.99381L88.0171 10.9735C88.0109 10.9017 88.0058 10.8309 88.0017 10.7611C87.9976 10.6913 87.9955 10.6267 87.9955 10.5672V7.86145H88.7251Z" fill="white"/>
<path d="M8.86621 21.361C8.86621 17.731 8.86621 14.0311 8.86621 10.4011C8.86621 9.98228 8.93602 9.56343 9.28506 9.21439C9.42468 9.07478 9.49448 9.07478 9.6341 9.21439C12.0774 11.7275 14.5905 14.2406 17.0338 16.7537C18.6393 18.3592 20.2449 20.0346 21.8505 21.6402C21.9901 21.7798 21.9901 21.8496 21.8505 22.0591C17.8714 25.8287 13.9622 29.738 10.0529 33.6472C9.84352 33.8566 9.6341 33.8566 9.42468 33.717C9.00583 33.368 8.86621 32.9491 8.86621 32.4605C8.86621 30.2964 8.86621 28.1324 8.86621 25.9683C8.86621 24.4325 8.86621 22.8968 8.86621 21.361Z" fill="white"/>
<path d="M10.2627 8.72595C10.5419 8.72595 10.7514 8.79576 10.9608 8.93538C15.987 11.7277 21.0131 14.52 25.9695 17.3821C26.1789 17.5218 26.1789 17.5916 26.0393 17.7312C24.9224 18.8481 23.8055 19.965 22.6885 21.082C22.5489 21.2216 22.4791 21.2914 22.3395 21.082C18.3604 17.0331 14.3814 12.9842 10.3325 8.86557C10.3325 8.86557 10.3325 8.79576 10.2627 8.72595Z" fill="white"/>
<path d="M11.3789 33.5776C15.0089 29.8778 18.6389 26.2478 22.269 22.5479C22.4784 22.3385 22.618 22.3385 22.8274 22.5479C23.7349 23.5252 24.7122 24.4328 25.6197 25.4101C25.7594 25.5497 25.8292 25.6195 25.5499 25.7591C20.8728 28.342 16.1957 30.8551 11.5185 33.438C11.5185 33.5078 11.4487 33.5776 11.3789 33.5776Z" fill="white"/>
<path d="M32.1817 21.4308C32.1817 21.8496 31.9723 22.1288 31.6931 22.3383C31.4837 22.4779 31.2044 22.6175 30.995 22.7571C29.5988 23.525 28.1329 24.2929 26.7367 25.1306C26.5273 25.2702 26.4575 25.2004 26.2481 25.0608C25.2707 24.0137 24.2236 22.9665 23.2463 21.9892C23.1067 21.8496 23.1067 21.7798 23.2463 21.6402C24.4331 20.4534 25.6198 19.2667 26.8065 18.1498C26.9461 18.0102 27.0159 18.0102 27.2254 18.08C28.6215 18.8479 30.0177 19.6157 31.4139 20.4534C31.8327 20.5931 32.1119 20.9421 32.1817 21.4308Z" fill="white"/>
</svg>
