<svg width="59" height="59" viewBox="0 0 59 59" fill="none" xmlns="http://www.w3.org/2000/svg">
<circle cx="29.5" cy="29.5" r="29.5" fill="url(#paint0_linear)"/>
<path d="M39.793 27.4341C39.8127 27.0147 39.4978 26.6551 39.0845 26.6352C38.6712 26.6152 38.317 26.9348 38.2973 27.3542C38.0021 32.0479 34.1446 35.743 29.5 35.743C28.1223 35.743 26.8037 35.4234 25.5835 34.8242C25.2095 34.6445 24.7569 34.7843 24.5798 35.1638C24.4026 35.5433 24.5404 36.0027 24.9143 36.1824C26.351 36.9015 27.8861 37.261 29.5 37.261C34.9319 37.241 39.4585 32.9468 39.793 27.4341Z" fill="#18B3FF"/>
<path d="M22.6906 32.4674C22.4347 32.1479 21.9624 32.088 21.6278 32.3676C21.3129 32.6272 21.2539 33.1066 21.5294 33.4461C21.8049 33.7857 22.1198 34.1252 22.4347 34.4248C22.5725 34.5647 22.7693 34.6246 22.9464 34.6246C23.1432 34.6246 23.34 34.5447 23.4975 34.3849C23.773 34.0853 23.773 33.586 23.4581 33.3063C23.1826 33.0467 22.9267 32.767 22.6906 32.4674Z" fill="#18B3FF"/>
<path d="M34.1645 17.4275C32.7081 16.6885 31.1534 16.309 29.5002 16.309C26.7449 16.309 24.147 17.4075 22.1986 19.3849C20.2502 21.3622 19.1677 23.9787 19.1677 26.775C19.1677 28.1931 19.4433 29.5513 19.9746 30.8496C20.0927 31.1492 20.3683 31.309 20.6635 31.309C20.7619 31.309 20.8603 31.289 20.9587 31.249C21.3326 31.0893 21.5294 30.6299 21.3523 30.2504C20.8996 29.1518 20.6635 27.9734 20.6635 26.775C20.6635 24.3782 21.5885 22.1412 23.2417 20.4434C24.9342 18.7457 27.1385 17.807 29.5002 17.807C32.2752 17.807 34.8337 19.1052 36.5262 21.3422C36.7821 21.6818 37.2544 21.7417 37.5693 21.4821C37.9039 21.2224 37.9629 20.743 37.7071 20.4235C36.7821 19.1652 35.5422 18.1265 34.1645 17.4275Z" fill="#18B3FF"/>
<path d="M39.1829 23.1198C39.0451 22.7204 38.6122 22.5206 38.2185 22.6804C37.8249 22.8202 37.6281 23.2596 37.7856 23.6591C37.9036 23.9986 38.0217 24.3582 38.1004 24.7177C38.1792 25.0772 38.4941 25.2969 38.8286 25.2969C38.8877 25.2969 38.9467 25.2969 39.0058 25.2769C39.4191 25.1771 39.6552 24.7776 39.5568 24.3582C39.4584 23.9587 39.3207 23.5193 39.1829 23.1198Z" fill="#18B3FF"/>
<path d="M27.2761 42.9934C26.9809 43.293 26.9809 43.7723 27.2761 44.0719L27.6894 44.4914C27.8272 44.6312 28.024 44.7111 28.2208 44.7111C28.4176 44.7111 28.6144 44.6312 28.7522 44.4914C29.0474 44.1918 29.0474 43.7124 28.7522 43.4128L28.3389 42.9934C28.0437 42.6938 27.5713 42.6938 27.2761 42.9934Z" fill="#18B3FF"/>
<path d="M42.5681 13.4927C39.0846 9.95739 34.4399 8 29.5 8C24.5601 8 19.9154 9.95739 16.4123 13.4927C16.058 13.8522 15.7037 14.2317 15.3888 14.6112C15.1133 14.9308 15.1527 15.4101 15.4676 15.6897C15.7825 15.9694 16.2548 15.9294 16.5303 15.6099C16.8255 15.2503 17.1404 14.9108 17.475 14.5712C20.683 11.3156 24.9537 9.51798 29.5 9.51798C34.0463 9.51798 38.2974 11.3156 41.525 14.5712C44.733 17.8269 46.5043 22.1611 46.5043 26.775C46.5043 31.3888 44.733 35.7031 41.525 38.9787L32.9638 47.6671L30.7399 45.4101C30.4447 45.1105 29.9724 45.1105 29.6771 45.4101C29.3819 45.7097 29.3819 46.1891 29.6771 46.4887L32.4325 49.285C32.5702 49.4248 32.767 49.5047 32.9638 49.5047C33.1607 49.5047 33.3575 49.4248 33.4952 49.285L42.5878 40.0573C46.0713 36.502 48 31.7883 48 26.775C48 21.7617 46.0713 17.0479 42.5681 13.4927Z" fill="#18B3FF"/>
<path d="M13.4012 19.1452C13.5193 19.2051 13.6374 19.2251 13.7555 19.2251C14.031 19.2251 14.2869 19.0653 14.4246 18.8056C14.6018 18.4661 14.7789 18.1265 14.9757 17.807C15.1922 17.4474 15.0741 16.9881 14.7198 16.7684C14.3656 16.5486 13.9129 16.6685 13.6964 17.028C13.48 17.3875 13.2831 17.747 13.0863 18.1265C12.8895 18.506 13.0273 18.9654 13.4012 19.1452Z" fill="#18B3FF"/>
<path d="M17.4753 38.9587C12.9093 34.3249 11.3349 27.5739 13.362 21.3222C13.4998 20.9228 13.2833 20.4834 12.8897 20.3635C12.496 20.2437 12.0631 20.4434 11.945 20.8429C10.8822 24.0985 10.7248 27.5939 11.4726 30.9294C12.2402 34.3649 13.9524 37.5206 16.4322 40.0173L28.9886 52.7603C29.1264 52.9001 29.3232 52.98 29.52 52.98C29.7168 52.98 29.9136 52.9001 30.0514 52.7603C30.3466 52.4607 30.3466 51.9814 30.0514 51.6818L17.4753 38.9587Z" fill="#18B3FF"/>
<defs>
<linearGradient id="paint0_linear" x1="29.5" y1="90.0206" x2="29.5" y2="15.5103" gradientUnits="userSpaceOnUse">
<stop stop-color="#83EBF1"/>
<stop offset="1" stop-color="white" stop-opacity="0"/>
</linearGradient>
</defs>
</svg>
