<svg xmlns="http://www.w3.org/2000/svg" width="137" height="38" viewBox="0 0 137 38">
    <g fill="#FFF" fill-rule="nonzero">
        <path d="M51.391 14.155a6.57 6.57 0 0 1-.4 1.457l-2.927 8.207H45.72l-2.822-8.181a4.724 4.724 0 0 1-.399-1.483h2.05l1.757 5.395.585 2.147h.08l2.423-7.516 1.996-.026zm2.609 0v9.639h6.309l-.08-1.56h-4.233v-2.582h3.301v-1.56h-3.3V15.69h4.179l.08-1.534H54zm15.253 0v3.937h-3.966v-3.937H63.29v9.639h1.997v-4.117h3.966v4.117h1.997v-9.639h-1.997zm5.51 0h1.997v9.639h-1.996v-9.639zm9.85-.153a5.351 5.351 0 0 1 2.795.716l-.692 1.406a4.262 4.262 0 0 0-2.023-.46c-.666-.026-1.331.204-1.81.664-.666.665-.959 1.713-.959 2.761 0 1.662.693 3.273 2.875 3.273.72 0 1.465-.154 2.13-.41l.506 1.407a6.763 6.763 0 0 1-3.008.64c-2.928 0-4.579-2.02-4.579-4.782-.027-2.684 1.544-5.215 4.765-5.215zm13.15.153v5.701c0 2.48-1.17 4.142-3.993 4.142-2.395 0-3.673-1.355-3.673-3.784v-6.059h1.97v5.804c0 1.585.452 2.428 1.863 2.428.453 0 .905-.153 1.225-.434.452-.486.665-1.1.612-1.739v-6.059h1.996zm3.434 0v9.639h5.857l-.08-1.586h-3.78v-8.053h-1.997zm15.84 0v5.701c0 2.48-1.172 4.142-3.994 4.142-2.395 0-3.673-1.355-3.673-3.784v-6.059h1.996v5.804c0 1.585.453 2.428 1.864 2.428.452 0 .905-.153 1.224-.434.453-.486.666-1.1.613-1.739v-6.059h1.97zm13.336 0l1.065 8.488c.08.384.106.793.106 1.176h-1.836l-.693-5.497-.186-1.917h-.053l-1.864 7.44h-2.369l-1.464-5.497-.4-1.969h-.052l-.826 7.466h-1.81c.027-.435.08-.87.16-1.304l1.038-8.335h2.742l1.517 5.574.373 1.815h.08l1.757-7.389 2.715-.05zm5.005 7.644a1.03 1.03 0 0 1 1.118.92v.103c.053.588-.4 1.1-1.012 1.15h-.133a1.107 1.107 0 0 1-1.118-1.099c0-.588.506-1.074 1.145-1.074zM1.01 27.563v-17.1L5.973 19l.295-.508-4.748-8.109 7.082 4.068.242-.402L1.25 9.714 16.463.964l.51-.857L.5 9.58v18.84c.134-.214.295-.509.51-.857zm31.927-17.126v17.501l-13.871-8.001-.43.294 14.113 8.135-15.534 8.938-6.708-11.507-.402.268 6.493 11.132L4.229 30.08l-.456.321 13.2 7.6 16.473-9.473V10.115l-.51.322zM20.46 2.114l-.241.428 9.631 5.54.456-.295-9.846-5.673zm-8.29 14.397l2.763 1.606.43-.294-2.979-1.713-.214.401z"/>
        <path d="M30.817 8.028L7.287 23.844 20.086 1.846 17.456.321A45031.981 45031.981 0 0 1 .902 28.741l2.388 1.445c3.22-2.194 25.354-17.368 30.13-20.632l-2.603-1.526z"/>
    </g>
</svg>
